<svg viewBox="0 0 527 75" xmlns="http://www.w3.org/2000/svg">
<path d="
M 0 0.978 L 0 73.731 L 13.037 73.731 L 13.037 0.978 L 0 0.978 Z
M 24.609 73.731 L 6.201 73.731 L 6.201 62.452 L 23.975 62.452 Q 31.592 62.452 36.694 59.645 Q 41.797 56.837 44.385 51.246 Q 46.973 45.655 46.973 37.257 Q 46.973 28.956 44.385 23.39 Q 41.797 17.823 36.792 15.04 Q 31.787 12.257 24.316 12.257 L 5.811 12.257 L 5.811 0.978 L 25.098 0.978 Q 35.938 0.978 43.701 5.323 Q 51.465 9.669 55.64 17.823 Q 59.814 25.978 59.814 37.257 Q 59.814 48.634 55.64 56.812 Q 51.465 64.991 43.579 69.361 Q 35.693 73.731 24.609 73.731 Z

M 103.369 74.708 Q 93.799 74.708 86.23 70.265 Q 78.662 65.821 74.292 57.472 Q 69.922 49.122 69.922 37.403 Q 69.922 25.636 74.292 17.262 Q 78.662 8.888 86.23 4.444 Q 93.799 0.001 103.369 0.001 Q 112.891 0.001 120.435 4.444 Q 127.979 8.888 132.349 17.262 Q 136.719 25.636 136.719 37.403 Q 136.719 49.122 132.349 57.496 Q 127.979 65.87 120.435 70.289 Q 112.891 74.708 103.369 74.708 Z
M 103.369 63.038 Q 109.277 63.038 113.843 60.084 Q 118.408 57.13 120.996 51.393 Q 123.584 45.655 123.584 37.403 Q 123.584 29.054 120.996 23.316 Q 118.408 17.579 113.843 14.625 Q 109.277 11.671 103.369 11.671 Q 97.412 11.671 92.822 14.649 Q 88.232 17.628 85.62 23.365 Q 83.008 29.103 83.008 37.403 Q 83.008 45.655 85.62 51.368 Q 88.232 57.081 92.822 60.06 Q 97.412 63.038 103.369 63.038 Z

M 161.865 73.731 L 149.072 73.731 L 149.072 0.978 L 168.701 0.978 L 182.52 38.526 Q 183.252 40.626 184.155 43.922 Q 185.059 47.218 186.011 51.026 Q 186.963 54.835 187.817 58.473 Q 188.672 62.11 189.258 64.894 L 186.621 64.894 Q 187.207 62.159 188.062 58.57 Q 188.916 54.981 189.868 51.148 Q 190.82 47.315 191.724 43.995 Q 192.627 40.675 193.311 38.526 L 206.982 0.978 L 226.66 0.978 L 226.66 73.731 L 213.672 73.731 L 213.672 37.013 Q 213.672 34.669 213.721 31.349 Q 213.77 28.028 213.867 24.22 Q 213.965 20.411 214.063 16.529 Q 214.16 12.647 214.16 9.132 L 215.088 9.132 Q 214.111 12.989 212.964 17.018 Q 211.816 21.046 210.693 24.83 Q 209.57 28.614 208.569 31.788 Q 207.568 34.962 206.836 37.013 L 193.408 73.731 L 182.324 73.731 L 168.701 37.013 Q 167.969 34.962 166.968 31.861 Q 165.967 28.761 164.819 25.001 Q 163.672 21.241 162.524 17.164 Q 161.377 13.087 160.254 9.132 L 161.328 9.132 Q 161.377 12.403 161.475 16.236 Q 161.572 20.069 161.646 23.927 Q 161.719 27.784 161.792 31.178 Q 161.865 34.571 161.865 37.013 L 161.865 73.731 Z

M 241.309 0.978 L 254.346 0.978 L 254.346 73.731 L 241.309 73.731 L 241.309 0.978 Z

M 282.275 73.731 L 268.994 73.731 L 268.994 0.978 L 283.74 0.978 L 308.887 41.065 Q 310.449 43.556 312.207 46.705 Q 313.965 49.854 315.869 53.736 Q 317.773 57.618 319.629 62.354 L 318.164 62.354 Q 317.822 58.253 317.554 53.932 Q 317.285 49.61 317.163 45.728 Q 317.041 41.847 317.041 39.161 L 317.041 0.978 L 330.273 0.978 L 330.273 73.731 L 315.479 73.731 L 292.773 37.647 Q 290.625 34.181 288.721 30.812 Q 286.816 27.442 284.619 23.194 Q 282.422 18.946 279.297 12.94 L 281.152 12.94 Q 281.445 18.263 281.689 23.023 Q 281.934 27.784 282.104 31.544 Q 282.275 35.304 282.275 37.599 L 282.275 73.731 Z

M 344.922 0.978 L 357.959 0.978 L 357.959 73.731 L 344.922 73.731 L 344.922 0.978 Z
M 372.607 0.978 L 385.645 0.978 L 385.645 73.731 L 372.607 73.731 L 372.607 0.978 Z

M 400.293 48.487 L 400.293 0.978 L 413.33 0.978 L 413.33 47.413 Q 413.33 51.954 415.356 55.519 Q 417.383 59.083 421.069 61.109 Q 424.756 63.136 429.785 63.136 Q 434.814 63.136 438.501 61.109 Q 442.188 59.083 444.214 55.519 Q 446.24 51.954 446.24 47.413 L 446.24 0.978 L 459.277 0.978 L 459.277 48.487 Q 459.277 56.251 455.591 62.184 Q 451.904 68.116 445.288 71.461 Q 438.672 74.806 429.785 74.806 Q 420.898 74.806 414.258 71.461 Q 407.617 68.116 403.955 62.184 Q 400.293 56.251 400.293 48.487 Z

M 471.191 52.345 L 484.033 52.345 Q 484.375 56.153 486.426 58.692 Q 488.477 61.231 491.846 62.477 Q 495.215 63.722 499.316 63.722 Q 503.613 63.722 506.909 62.403 Q 510.205 61.085 512.061 58.717 Q 513.916 56.349 513.916 53.224 Q 513.916 50.392 512.28 48.536 Q 510.645 46.681 507.69 45.387 Q 504.736 44.093 500.781 43.116 L 492.529 40.968 Q 483.398 38.624 478.296 33.888 Q 473.193 29.151 473.193 21.437 Q 473.193 14.991 476.66 10.157 Q 480.127 5.323 486.133 2.662 Q 492.139 0.001 499.756 0.001 Q 507.52 0.001 513.379 2.687 Q 519.238 5.372 522.534 10.108 Q 525.83 14.845 525.977 20.899 L 513.33 20.899 Q 512.842 16.212 509.155 13.648 Q 505.469 11.085 499.561 11.085 Q 495.459 11.085 492.505 12.33 Q 489.551 13.575 487.964 15.724 Q 486.377 17.872 486.377 20.655 Q 486.377 23.683 488.257 25.636 Q 490.137 27.589 492.993 28.761 Q 495.85 29.933 498.779 30.665 L 505.566 32.423 Q 509.619 33.399 513.428 35.011 Q 517.236 36.622 520.288 39.088 Q 523.34 41.554 525.146 45.069 Q 526.953 48.585 526.953 53.321 Q 526.953 59.718 523.682 64.576 Q 520.41 69.435 514.258 72.145 Q 508.105 74.854 499.414 74.854 Q 490.967 74.854 484.741 72.218 Q 478.516 69.581 475 64.552 Q 471.484 59.522 471.191 52.345 Z
"/>
</svg>